<svg id="Icons_Basic_Mail_Copy_2" data-name="Icons / Basic / Mail Copy 2" xmlns="http://www.w3.org/2000/svg" xmlns:xlink="http://www.w3.org/1999/xlink" width="20" height="20" viewBox="0 0 20 20">
  <defs>
    <clipPath id="clip-path">
      <path id="Check_Square" data-name="Check Square" d="M11.25,16H4.75A4.756,4.756,0,0,1,0,11.25V4.75A4.756,4.756,0,0,1,4.75,0h6.5A4.756,4.756,0,0,1,16,4.75v6.5A4.756,4.756,0,0,1,11.25,16ZM4.75,1.5A3.254,3.254,0,0,0,1.5,4.75v6.5A3.254,3.254,0,0,0,4.75,14.5h6.5a3.254,3.254,0,0,0,3.25-3.25V4.75A3.254,3.254,0,0,0,11.25,1.5Zm2.344,9.062a.749.749,0,0,1-.5-.2L4.776,8.72a.751.751,0,0,1,1.01-1.111L7.094,8.8l3.483-3.167a.75.75,0,0,1,1.009,1.111L7.6,10.367A.749.749,0,0,1,7.094,10.562Z" transform="translate(2 2)" fill="#3f434a"/>
    </clipPath>
  </defs>
  <path id="Check_Square-2" data-name="Check Square" d="M11.25,16H4.75A4.756,4.756,0,0,1,0,11.25V4.75A4.756,4.756,0,0,1,4.75,0h6.5A4.756,4.756,0,0,1,16,4.75v6.5A4.756,4.756,0,0,1,11.25,16ZM4.75,1.5A3.254,3.254,0,0,0,1.5,4.75v6.5A3.254,3.254,0,0,0,4.75,14.5h6.5a3.254,3.254,0,0,0,3.25-3.25V4.75A3.254,3.254,0,0,0,11.25,1.5Zm2.344,9.062a.749.749,0,0,1-.5-.2L4.776,8.72a.751.751,0,0,1,1.01-1.111L7.094,8.8l3.483-3.167a.75.75,0,0,1,1.009,1.111L7.6,10.367A.749.749,0,0,1,7.094,10.562Z" transform="translate(2 2)" fill="#3f434a"/>
  <g id="Group_38" data-name="Group 38">
    <path id="Check_Square-3" data-name="Check Square" d="M11.25,16H4.75A4.756,4.756,0,0,1,0,11.25V4.75A4.756,4.756,0,0,1,4.75,0h6.5A4.756,4.756,0,0,1,16,4.75v6.5A4.756,4.756,0,0,1,11.25,16ZM4.75,1.5A3.254,3.254,0,0,0,1.5,4.75v6.5A3.254,3.254,0,0,0,4.75,14.5h6.5a3.254,3.254,0,0,0,3.25-3.25V4.75A3.254,3.254,0,0,0,11.25,1.5Zm2.344,9.062a.749.749,0,0,1-.5-.2L4.776,8.72a.751.751,0,0,1,1.01-1.111L7.094,8.8l3.483-3.167a.75.75,0,0,1,1.009,1.111L7.6,10.367A.749.749,0,0,1,7.094,10.562Z" transform="translate(2 2)" fill="#3f434a"/>
    <g id="Mask_Group_327" data-name="Mask Group 327" clip-path="url(#clip-path)">
      <g id="Color">
        <rect id="Rectangle" width="20" height="20" fill="#66687f"/>
      </g>
    </g>
  </g>
</svg>
