<svg xmlns="http://www.w3.org/2000/svg" xmlns:xlink="http://www.w3.org/1999/xlink" width="15.176" height="16.001" viewBox="0 0 15.176 16.001">
  <defs>
    <clipPath id="clip-path">
      <path id="Attachment" d="M10.444,1.5a2.066,2.066,0,0,0-1.461.605L2.517,8.571A3.474,3.474,0,0,0,7.43,13.484L13.9,7.018a.75.75,0,1,1,1.061,1.061L8.491,14.544A4.974,4.974,0,1,1,1.457,7.51L7.923,1.044a3.566,3.566,0,0,1,5.043,5.043L6.493,12.553h0A2.158,2.158,0,0,1,3.441,9.5L9.415,3.535A.75.75,0,0,1,10.475,4.6L4.5,10.562a.658.658,0,1,0,.93.93L11.9,5.027A2.066,2.066,0,0,0,10.444,1.5Z" transform="translate(2.5 2)" fill="none"/>
    </clipPath>
  </defs>
  <g id="Group_93" data-name="Group 93" transform="translate(-2.5 -2)">
    <path id="Attachment-2" data-name="Attachment" d="M10.444,1.5a2.066,2.066,0,0,0-1.461.605L2.517,8.571A3.474,3.474,0,0,0,7.43,13.484L13.9,7.018a.75.75,0,1,1,1.061,1.061L8.491,14.544A4.974,4.974,0,1,1,1.457,7.51L7.923,1.044a3.566,3.566,0,0,1,5.043,5.043L6.493,12.553h0A2.158,2.158,0,0,1,3.441,9.5L9.415,3.535A.75.75,0,0,1,10.475,4.6L4.5,10.562a.658.658,0,1,0,.93.93L11.9,5.027A2.066,2.066,0,0,0,10.444,1.5Z" transform="translate(2.5 2)" fill="none"/>
    <g id="Mask_Group_382" data-name="Mask Group 382" clip-path="url(#clip-path)">
      <g id="Color">
        <rect id="Rectangle" width="20" height="20" fill="#66687f"/>
      </g>
    </g>
  </g>
</svg>
