<svg width="16" height="18" viewBox="0 0 16 18" fill="none" xmlns="http://www.w3.org/2000/svg">
<mask id="mask0" style="mask-type:alpha" maskUnits="userSpaceOnUse" x="0" y="0" width="16" height="18">
<path fill-rule="evenodd" clip-rule="evenodd" d="M14.7544 12.5153L14.7543 12.5152C14.1195 11.7964 13.1046 10.6472 13.1046 7.34922C13.1046 4.67829 11.3656 2.54015 9.02081 2.01559V1.29922C9.02081 0.69181 8.56376 0.199219 8.00001 0.199219C7.43631 0.199219 6.97922 0.69181 6.97922 1.29922V2.01559C4.63441 2.54015 2.89543 4.67829 2.89543 7.34922C2.89543 10.6473 1.88049 11.7965 1.24563 12.5153L1.2456 12.5153C1.20355 12.5629 1.16316 12.6086 1.12485 12.653C0.933342 12.8746 0.848433 13.1397 0.850028 13.3992C0.853537 13.963 1.26434 14.4992 1.87465 14.4992H14.1254C14.7356 14.4992 15.1468 13.963 15.15 13.3992C15.1515 13.1397 15.0666 12.8743 14.8751 12.653C14.8368 12.6086 14.7964 12.5629 14.7544 12.5153ZM3.00556 12.8492C3.68289 11.8877 4.42342 10.2941 4.42693 7.36916C4.42693 7.36572 4.42645 7.36246 4.42597 7.35919C4.4255 7.35592 4.42502 7.35266 4.42502 7.34922C4.42502 5.22278 6.02546 3.49922 8.00001 3.49922C9.97451 3.49922 11.575 5.22278 11.575 7.34922C11.575 7.35266 11.5745 7.35592 11.574 7.35919C11.5735 7.36246 11.573 7.36572 11.573 7.36916C11.5765 10.2945 12.3172 11.8881 12.9944 12.8492H3.00556ZM10.0419 15.5992C10.0419 16.8144 9.1274 17.7992 8.00001 17.7992C6.87261 17.7992 5.95811 16.8144 5.95811 15.5992H10.0419Z" fill="white"/>
</mask>
<g mask="url(#mask0)">
<rect x="-3" y="-2" width="22" height="22" fill="#3F434A"/>
</g>
</svg>
