<svg id="Icons_Basic_Bell_Notification" data-name="Icons / Basic / Bell + Notification" xmlns="http://www.w3.org/2000/svg" xmlns:xlink="http://www.w3.org/1999/xlink" width="22" height="22" viewBox="0 0 22 22">
  <defs>
    <clipPath id="clip-path">
      <path id="Bell" d="M5.108,15.4H9.192A2.126,2.126,0,0,1,7.15,17.6,2.125,2.125,0,0,1,5.108,15.4ZM1.025,14.3A1.065,1.065,0,0,1,0,13.2a1.113,1.113,0,0,1,.275-.745c.617-.714,1.77-1.788,1.77-5.3A5.34,5.34,0,0,1,6.129,1.817V1.1A1.063,1.063,0,0,1,7.15,0,1.062,1.062,0,0,1,8.171,1.1v.717A5.339,5.339,0,0,1,12.254,7.15c0,3.516,1.154,4.591,1.771,5.3a1.117,1.117,0,0,1,.274.745,1.064,1.064,0,0,1-1.025,1.1Z" transform="translate(0)" fill="none"/>
    </clipPath>
    <clipPath id="clip-path-2">
      <path id="Path" d="M3.3,6.6A3.3,3.3,0,1,0,0,3.3,3.3,3.3,0,0,0,3.3,6.6Z" fill="none"/>
    </clipPath>
  </defs>
  <g id="Bell-2" data-name="Bell" transform="translate(3.85 2.2)">
    <path id="Bell-3" data-name="Bell" d="M5.108,15.4H9.192A2.126,2.126,0,0,1,7.15,17.6,2.125,2.125,0,0,1,5.108,15.4ZM1.025,14.3A1.065,1.065,0,0,1,0,13.2a1.113,1.113,0,0,1,.275-.745c.617-.714,1.77-1.788,1.77-5.3A5.34,5.34,0,0,1,6.129,1.817V1.1A1.063,1.063,0,0,1,7.15,0,1.062,1.062,0,0,1,8.171,1.1v.717A5.339,5.339,0,0,1,12.254,7.15c0,3.516,1.154,4.591,1.771,5.3a1.117,1.117,0,0,1,.274.745,1.064,1.064,0,0,1-1.025,1.1Z" transform="translate(0)" fill="none"/>
    <g id="Bell-4" data-name="Bell" clip-path="url(#clip-path)">
      <g id="Color" transform="translate(-3.85 -2.2)">
        <rect id="Rectangle" width="22" height="22" fill="#3f434a"/>
      </g>
    </g>
  </g>
  <g id="Notification" transform="translate(12.65 1.65)">
    <g id="BG">
      <path id="Path-2" data-name="Path" d="M3.3,6.6A3.3,3.3,0,1,0,0,3.3,3.3,3.3,0,0,0,3.3,6.6Z" fill="none"/>
      <g id="BG-2" data-name="BG" clip-path="url(#clip-path-2)">
        <g id="Color_Red" data-name="Color / Red" transform="translate(0.5 0.5)">
          <rect id="Rectangle-2" data-name="Rectangle" width="5.6" height="5.6" fill="#fd7972"/>
        </g>
      </g>
    </g>
    <g id="Border" fill="none" stroke-miterlimit="10">
      <path d="M3.3,6.6A3.3,3.3,0,1,0,0,3.3,3.3,3.3,0,0,0,3.3,6.6Z" stroke="none"/>
      <path d="M 3.300000190734863 5.600000381469727 C 4.568220138549805 5.600000381469727 5.600000381469727 4.568220138549805 5.600000381469727 3.300000190734863 C 5.600000381469727 2.031780242919922 4.568220138549805 1.000000238418579 3.300000190734863 1.000000238418579 C 2.031780242919922 1.000000238418579 1.000000238418579 2.031780242919922 1.000000238418579 3.300000190734863 C 1.000000238418579 4.568220138549805 2.031780242919922 5.600000381469727 3.300000190734863 5.600000381469727 M 3.300000190734863 6.600000381469727 C 1.477410197257996 6.600000381469727 1.907348661234209e-07 5.122529983520508 1.907348661234209e-07 3.300000190734863 C 1.907348661234209e-07 1.477460145950317 1.477410197257996 1.907348661234209e-07 3.300000190734863 1.907348661234209e-07 C 5.122590065002441 1.907348661234209e-07 6.600000381469727 1.477460145950317 6.600000381469727 3.300000190734863 C 6.600000381469727 5.122529983520508 5.122590065002441 6.600000381469727 3.300000190734863 6.600000381469727 Z" stroke="none" fill="#fff"/>
    </g>
  </g>
</svg>
