<svg width="20" height="20" viewBox="0 0 20 20" fill="none" xmlns="http://www.w3.org/2000/svg">
<mask id="mask0_233:189623" style="mask-type:alpha" maskUnits="userSpaceOnUse" x="2" y="3" width="16" height="14">
<path fill-rule="evenodd" clip-rule="evenodd" d="M14.48 5.9375H16.4C17.28 5.9375 18 6.66875 18 7.5625V14.875C18 15.7688 17.28 16.5 16.4 16.5H3.6C2.72 16.5 2 15.7688 2 14.875V7.5625C2 6.66875 2.72 5.9375 3.6 5.9375H5.52C5.784 5.9375 6.068 5.7295 6.1512 5.47437L6.6488 3.9615C6.7312 3.708 7.016 3.5 7.28 3.5H12.72C12.9848 3.5 13.268 3.708 13.352 3.96231L13.8488 5.47437C13.9312 5.7295 14.216 5.9375 14.48 5.9375ZM7.6 10.8125C7.6 9.467 8.6744 8.375 10 8.375C11.3248 8.375 12.4 9.467 12.4 10.8125C12.4 12.158 11.3248 13.25 10 13.25C8.6744 13.25 7.6 12.158 7.6 10.8125ZM10 14.875C7.7904 14.875 6 13.0566 6 10.8125C6 8.56838 7.7904 6.75 10 6.75C12.2088 6.75 14 8.56838 14 10.8125C14 13.0566 12.2088 14.875 10 14.875ZM15.44 7.96794C15.44 8.28237 15.6904 8.5375 16 8.5375C16.3096 8.5375 16.56 8.28237 16.56 7.96794C16.56 7.65431 16.3096 7.39919 16 7.39919C15.6904 7.39919 15.44 7.65513 15.44 7.96794Z" fill="white"/>
</mask>
<g mask="url(#mask0_233:189623)">
<rect width="20" height="20" fill="#3F434A"/>
</g>
</svg>
