<svg id="Icons_Basic_Tasks" data-name="Icons / Basic / Tasks" xmlns="http://www.w3.org/2000/svg" xmlns:xlink="http://www.w3.org/1999/xlink" width="16" height="16" viewBox="0 0 16 16">
  <defs>
    <clipPath id="clip-path">
      <path id="Cart" d="M10.618,12.272a1.127,1.127,0,1,1,1.127-1.127A1.128,1.128,0,0,1,10.618,12.272Zm-5.8,0a1.127,1.127,0,1,1,1.127-1.127A1.128,1.128,0,0,1,4.818,12.272Zm5.5-3.163H5.157A1.656,1.656,0,0,1,3.534,7.777l-.881-4.4c0-.015-.007-.032-.009-.048L2.217,1.2H.6A.6.6,0,0,1,.6,0H2.709A.6.6,0,0,1,3.3.482l.431,2.154H12.2a.6.6,0,0,1,.589.713l-.843,4.424v0a1.655,1.655,0,0,1-1.623,1.332Zm-5.144-1.2h5.142a.458.458,0,0,0,.287-.1.452.452,0,0,0,.161-.264l.707-3.709H3.969L4.71,7.542a.456.456,0,0,0,.449.367h.018Z" transform="translate(0 0)" fill="none"/>
    </clipPath>
  </defs>
  <g id="Group_85" data-name="Group 85" transform="translate(0.8 1.864)">
    <path id="Cart-2" data-name="Cart" d="M10.618,12.272a1.127,1.127,0,1,1,1.127-1.127A1.128,1.128,0,0,1,10.618,12.272Zm-5.8,0a1.127,1.127,0,1,1,1.127-1.127A1.128,1.128,0,0,1,4.818,12.272Zm5.5-3.163H5.157A1.656,1.656,0,0,1,3.534,7.777l-.881-4.4c0-.015-.007-.032-.009-.048L2.217,1.2H.6A.6.6,0,0,1,.6,0H2.709A.6.6,0,0,1,3.3.482l.431,2.154H12.2a.6.6,0,0,1,.589.713l-.843,4.424v0a1.655,1.655,0,0,1-1.623,1.332Zm-5.144-1.2h5.142a.458.458,0,0,0,.287-.1.452.452,0,0,0,.161-.264l.707-3.709H3.969L4.71,7.542a.456.456,0,0,0,.449.367h.018Z" transform="translate(0 0)" fill="none"/>
    <g id="Mask_Group_374" data-name="Mask Group 374" clip-path="url(#clip-path)">
      <g id="Color" transform="translate(-0.8 -1.864)">
        <rect id="Rectangle" width="16" height="16" fill="#8a9099"/>
      </g>
    </g>
  </g>
</svg>
