<svg xmlns="http://www.w3.org/2000/svg" xmlns:xlink="http://www.w3.org/1999/xlink" width="13.001" height="16.002" viewBox="0 0 13.001 16.002"><defs><clipPath id="a"><path d="M10.814,16H2.188a2.17,2.17,0,0,1-1.55-.646A2.192,2.192,0,0,1,0,13.8V3.65a2.194,2.194,0,0,1,2.188-2.2h.687A1.479,1.479,0,0,1,4.343,0H8.656a1.479,1.479,0,0,1,1.469,1.45h.689A2.194,2.194,0,0,1,13,3.65V13.8a2.192,2.192,0,0,1-.638,1.553A2.17,2.17,0,0,1,10.814,16ZM2.188,2.95a.678.678,0,0,0-.484.2.7.7,0,0,0-.2.5V13.8a.709.709,0,0,0,.2.5.676.676,0,0,0,.484.2h8.626a.676.676,0,0,0,.484-.2.709.709,0,0,0,.2-.5V3.65a.7.7,0,0,0-.2-.5.687.687,0,0,0-.484-.2h-.689A1.479,1.479,0,0,1,8.656,4.4H4.343A1.479,1.479,0,0,1,2.875,2.95ZM4.375,1.5V2.9H8.626V1.5Z" transform="translate(0 0)" fill="none"/></clipPath></defs><g transform="translate(-3.5 -2)"><g transform="translate(3.5 2)"><path d="M10.814,16H2.188a2.17,2.17,0,0,1-1.55-.646A2.192,2.192,0,0,1,0,13.8V3.65a2.194,2.194,0,0,1,2.188-2.2h.687A1.479,1.479,0,0,1,4.343,0H8.656a1.479,1.479,0,0,1,1.469,1.45h.689A2.194,2.194,0,0,1,13,3.65V13.8a2.192,2.192,0,0,1-.638,1.553A2.17,2.17,0,0,1,10.814,16ZM2.188,2.95a.678.678,0,0,0-.484.2.7.7,0,0,0-.2.5V13.8a.709.709,0,0,0,.2.5.676.676,0,0,0,.484.2h8.626a.676.676,0,0,0,.484-.2.709.709,0,0,0,.2-.5V3.65a.7.7,0,0,0-.2-.5.687.687,0,0,0-.484-.2h-.689A1.479,1.479,0,0,1,8.656,4.4H4.343A1.479,1.479,0,0,1,2.875,2.95ZM4.375,1.5V2.9H8.626V1.5Z" transform="translate(0 0)" fill="none"/><g clip-path="url(#a)"><g transform="translate(-3.5 -2)"><rect width="20" height="20" fill="#8a9099"/></g></g></g></g></svg>