<svg xmlns="http://www.w3.org/2000/svg" xmlns:xlink="http://www.w3.org/1999/xlink" width="29.269" height="34" viewBox="0 0 29.269 34">
  <defs>
    <linearGradient id="linear-gradient" y1="1" x2="1" gradientUnits="objectBoundingBox">
      <stop offset="0" stop-color="#05e2d3"/>
      <stop offset="1" stop-color="#009df7"/>
    </linearGradient>
    <clipPath id="clip-path">
      <path id="Shape" d="M1.372,34A1.371,1.371,0,0,1,.4,31.658l3.881-3.882L.4,23.9a1.372,1.372,0,1,1,1.94-1.94l3.881,3.88,3.881-3.882a1.372,1.372,0,0,1,1.94,1.94L8.164,27.776l3.88,3.88A1.372,1.372,0,0,1,10.1,33.6l-3.88-3.881L2.342,33.6A1.361,1.361,0,0,1,1.372,34ZM25.1,33H17.153a6.358,6.358,0,0,0,1.866-2.475H25.1A1.675,1.675,0,0,0,26.317,30a1.873,1.873,0,0,0,.514-1.292V7.343a1.876,1.876,0,0,0-.514-1.292A1.675,1.675,0,0,0,25.1,5.529H23.378v.287A2.731,2.731,0,0,1,20.687,8.58H11.851A2.732,2.732,0,0,1,9.159,5.816V5.529H7.433a1.675,1.675,0,0,0-1.212.522,1.877,1.877,0,0,0-.515,1.292V14.89a6.094,6.094,0,0,0-2.437.875V7.343a4.331,4.331,0,0,1,1.21-3.024A4.133,4.133,0,0,1,7.433,3.054H9.159v-.29A2.732,2.732,0,0,1,11.851,0h8.836a2.731,2.731,0,0,1,2.691,2.764v.29H25.1a4.133,4.133,0,0,1,2.954,1.265,4.331,4.331,0,0,1,1.211,3.024V28.71a4.332,4.332,0,0,1-1.211,3.025A4.133,4.133,0,0,1,25.1,33ZM12.514,2a.288.288,0,0,0-.245.319V5.682A.288.288,0,0,0,12.514,6h8.51a.288.288,0,0,0,.245-.319V2.318A.288.288,0,0,0,21.024,2Z" transform="translate(1.731 2)" fill="url(#linear-gradient)"/>
    </clipPath>
  </defs>
  <g id="Icon" transform="translate(-1.731 -2)">
    <path id="Shape-2" data-name="Shape" d="M1.372,34A1.371,1.371,0,0,1,.4,31.658l3.881-3.882L.4,23.9a1.372,1.372,0,1,1,1.94-1.94l3.881,3.88,3.881-3.882a1.372,1.372,0,0,1,1.94,1.94L8.164,27.776l3.88,3.88A1.372,1.372,0,0,1,10.1,33.6l-3.88-3.881L2.342,33.6A1.361,1.361,0,0,1,1.372,34ZM25.1,33H17.153a6.358,6.358,0,0,0,1.866-2.475H25.1A1.675,1.675,0,0,0,26.317,30a1.873,1.873,0,0,0,.514-1.292V7.343a1.876,1.876,0,0,0-.514-1.292A1.675,1.675,0,0,0,25.1,5.529H23.378v.287A2.731,2.731,0,0,1,20.687,8.58H11.851A2.732,2.732,0,0,1,9.159,5.816V5.529H7.433a1.675,1.675,0,0,0-1.212.522,1.877,1.877,0,0,0-.515,1.292V14.89a6.094,6.094,0,0,0-2.437.875V7.343a4.331,4.331,0,0,1,1.21-3.024A4.133,4.133,0,0,1,7.433,3.054H9.159v-.29A2.732,2.732,0,0,1,11.851,0h8.836a2.731,2.731,0,0,1,2.691,2.764v.29H25.1a4.133,4.133,0,0,1,2.954,1.265,4.331,4.331,0,0,1,1.211,3.024V28.71a4.332,4.332,0,0,1-1.211,3.025A4.133,4.133,0,0,1,25.1,33ZM12.514,2a.288.288,0,0,0-.245.319V5.682A.288.288,0,0,0,12.514,6h8.51a.288.288,0,0,0,.245-.319V2.318A.288.288,0,0,0,21.024,2Z" transform="translate(1.731 2)" fill="url(#linear-gradient)"/>
    <g id="Mask_Group_17" data-name="Mask Group 17" clip-path="url(#clip-path)">
      <g id="Color" transform="translate(9 9)">
        <rect id="Rectangle" width="22" height="22" fill="url(#linear-gradient)"/>
      </g>
    </g>
  </g>
</svg>
