<svg xmlns="http://www.w3.org/2000/svg" xmlns:xlink="http://www.w3.org/1999/xlink" width="29" height="33" viewBox="0 0 29 33">
  <defs>
    <linearGradient id="linear-gradient" y1="1" x2="1" gradientUnits="objectBoundingBox">
      <stop offset="0" stop-color="#ff67a7"/>
      <stop offset="1" stop-color="#fd8762"/>
    </linearGradient>
    <clipPath id="clip-path">
      <path id="Shape" d="M21.836,33H4.164A4.13,4.13,0,0,1,1.21,31.734,4.328,4.328,0,0,1,0,28.71V7.343A4.331,4.331,0,0,1,1.21,4.319,4.133,4.133,0,0,1,4.164,3.054H5.89v-.29A2.732,2.732,0,0,1,8.582,0h8.836A2.731,2.731,0,0,1,20.11,2.764v.29h1.726A4.133,4.133,0,0,1,24.79,4.319a4.287,4.287,0,0,1,.742,1.048,4.959,4.959,0,0,0-1.41.952l-.61.588a1.844,1.844,0,0,0-.463-.856,1.675,1.675,0,0,0-1.212-.522H20.11v.287A2.731,2.731,0,0,1,17.419,8.58H8.582A2.732,2.732,0,0,1,5.89,5.816V5.529H4.164a1.675,1.675,0,0,0-1.212.522,1.877,1.877,0,0,0-.515,1.292V28.71A1.874,1.874,0,0,0,2.952,30a1.675,1.675,0,0,0,1.212.523H21.836A1.675,1.675,0,0,0,23.048,30a1.873,1.873,0,0,0,.514-1.292V20.6L26,18.259V28.71a4.328,4.328,0,0,1-1.21,3.024A4.13,4.13,0,0,1,21.836,33ZM8.245,2A.288.288,0,0,0,8,2.318V5.682A.288.288,0,0,0,8.245,6h8.51A.288.288,0,0,0,17,5.682V2.318A.288.288,0,0,0,16.755,2Zm4.432,23a1.34,1.34,0,0,1-.941-.376.586.586,0,0,1-.048-.047l-.008-.009-.008-.009L6.39,19.473a1.248,1.248,0,0,1,0-1.813,1.367,1.367,0,0,1,1.883,0L12.679,21.9,26.727,8.376a1.365,1.365,0,0,1,1.882,0,1.245,1.245,0,0,1,0,1.812L13.686,24.559a.872.872,0,0,1-.064.065,1.331,1.331,0,0,1-.754.363A1.379,1.379,0,0,1,12.676,25Z" transform="translate(6 4)" fill="url(#linear-gradient)"/>
    </clipPath>
  </defs>
  <g id="Icon" transform="translate(-6 -4)">
    <path id="Shape-2" data-name="Shape" d="M21.836,33H4.164A4.13,4.13,0,0,1,1.21,31.734,4.328,4.328,0,0,1,0,28.71V7.343A4.331,4.331,0,0,1,1.21,4.319,4.133,4.133,0,0,1,4.164,3.054H5.89v-.29A2.732,2.732,0,0,1,8.582,0h8.836A2.731,2.731,0,0,1,20.11,2.764v.29h1.726A4.133,4.133,0,0,1,24.79,4.319a4.287,4.287,0,0,1,.742,1.048,4.959,4.959,0,0,0-1.41.952l-.61.588a1.844,1.844,0,0,0-.463-.856,1.675,1.675,0,0,0-1.212-.522H20.11v.287A2.731,2.731,0,0,1,17.419,8.58H8.582A2.732,2.732,0,0,1,5.89,5.816V5.529H4.164a1.675,1.675,0,0,0-1.212.522,1.877,1.877,0,0,0-.515,1.292V28.71A1.874,1.874,0,0,0,2.952,30a1.675,1.675,0,0,0,1.212.523H21.836A1.675,1.675,0,0,0,23.048,30a1.873,1.873,0,0,0,.514-1.292V20.6L26,18.259V28.71a4.328,4.328,0,0,1-1.21,3.024A4.13,4.13,0,0,1,21.836,33ZM8.245,2A.288.288,0,0,0,8,2.318V5.682A.288.288,0,0,0,8.245,6h8.51A.288.288,0,0,0,17,5.682V2.318A.288.288,0,0,0,16.755,2Zm4.432,23a1.34,1.34,0,0,1-.941-.376.586.586,0,0,1-.048-.047l-.008-.009-.008-.009L6.39,19.473a1.248,1.248,0,0,1,0-1.813,1.367,1.367,0,0,1,1.883,0L12.679,21.9,26.727,8.376a1.365,1.365,0,0,1,1.882,0,1.245,1.245,0,0,1,0,1.812L13.686,24.559a.872.872,0,0,1-.064.065,1.331,1.331,0,0,1-.754.363A1.379,1.379,0,0,1,12.676,25Z" transform="translate(6 4)" fill="url(#linear-gradient)"/>
    <g id="Mask_Group_16" data-name="Mask Group 16" clip-path="url(#clip-path)">
      <g id="Color" transform="translate(10 10)">
        <rect id="Rectangle" width="20" height="20" fill="url(#linear-gradient)"/>
      </g>
    </g>
  </g>
</svg>
