<svg xmlns="http://www.w3.org/2000/svg" xmlns:xlink="http://www.w3.org/1999/xlink" width="16" height="16" viewBox="0 0 16 16"><defs><clipPath id="a"><path d="M14.5,16h-4A1.5,1.5,0,0,1,9,14.5v-4A1.5,1.5,0,0,1,10.5,9h4A1.5,1.5,0,0,1,16,10.5v4A1.5,1.5,0,0,1,14.5,16Zm-4-5.5v4h4v-4ZM5.5,16h-4A1.5,1.5,0,0,1,0,14.5v-4A1.5,1.5,0,0,1,1.5,9h4A1.5,1.5,0,0,1,7,10.5v4A1.5,1.5,0,0,1,5.5,16Zm-4-5.5v4h4v-4ZM14.5,7h-4A1.5,1.5,0,0,1,9,5.5v-4A1.5,1.5,0,0,1,10.5,0h4A1.5,1.5,0,0,1,16,1.5v4A1.5,1.5,0,0,1,14.5,7Zm-4-5.5v4h4v-4ZM5.5,7h-4A1.5,1.5,0,0,1,0,5.5v-4A1.5,1.5,0,0,1,1.5,0h4A1.5,1.5,0,0,1,7,1.5v4A1.5,1.5,0,0,1,5.5,7Zm-4-5.5v4h4v-4Z" transform="translate(0 0)" fill="none"/></clipPath></defs><g transform="translate(-2 -2)"><g transform="translate(2 2)"><path d="M14.5,16h-4A1.5,1.5,0,0,1,9,14.5v-4A1.5,1.5,0,0,1,10.5,9h4A1.5,1.5,0,0,1,16,10.5v4A1.5,1.5,0,0,1,14.5,16Zm-4-5.5v4h4v-4ZM5.5,16h-4A1.5,1.5,0,0,1,0,14.5v-4A1.5,1.5,0,0,1,1.5,9h4A1.5,1.5,0,0,1,7,10.5v4A1.5,1.5,0,0,1,5.5,16Zm-4-5.5v4h4v-4ZM14.5,7h-4A1.5,1.5,0,0,1,9,5.5v-4A1.5,1.5,0,0,1,10.5,0h4A1.5,1.5,0,0,1,16,1.5v4A1.5,1.5,0,0,1,14.5,7Zm-4-5.5v4h4v-4ZM5.5,7h-4A1.5,1.5,0,0,1,0,5.5v-4A1.5,1.5,0,0,1,1.5,0h4A1.5,1.5,0,0,1,7,1.5v4A1.5,1.5,0,0,1,5.5,7Zm-4-5.5v4h4v-4Z" transform="translate(0 0)" fill="none"/><g clip-path="url(#a)"><g transform="translate(-2 -2)"><rect width="20" height="20" fill="#8a9099"/></g></g></g></g></svg>