<svg id="Icons_Basic_Mail" data-name="Icons / Basic / Mail" xmlns="http://www.w3.org/2000/svg" xmlns:xlink="http://www.w3.org/1999/xlink" width="21" height="21" viewBox="0 0 21 21">
  <defs>
    <clipPath id="clip-path">
      <path id="mail" d="M14.49,13.755H2.311A2.313,2.313,0,0,1,0,11.445V2.3A2.316,2.316,0,0,1,2.311,0H14.49A2.319,2.319,0,0,1,16.8,2.289v.018c.018,1.956.013,3.947.007,5.871V8.4c0,1.23-.007,2.17-.007,3.049A2.313,2.313,0,0,1,14.49,13.755ZM1.575,3.823v7.622a.736.736,0,0,0,.735.735H14.49a.736.736,0,0,0,.735-.735V3.823L8.852,8.284a.787.787,0,0,1-.9,0Zm.735-2.247a.736.736,0,0,0-.646.387L8.4,6.677l6.736-4.716a.736.736,0,0,0-.646-.387Z" transform="translate(0 0)" fill="none"/>
    </clipPath>
  </defs>
  <g id="Group_113" data-name="Group 113" transform="translate(2.1 3.675)">
    <path id="mail-2" data-name="mail" d="M14.49,13.755H2.311A2.313,2.313,0,0,1,0,11.445V2.3A2.316,2.316,0,0,1,2.311,0H14.49A2.319,2.319,0,0,1,16.8,2.289v.018c.018,1.956.013,3.947.007,5.871V8.4c0,1.23-.007,2.17-.007,3.049A2.313,2.313,0,0,1,14.49,13.755ZM1.575,3.823v7.622a.736.736,0,0,0,.735.735H14.49a.736.736,0,0,0,.735-.735V3.823L8.852,8.284a.787.787,0,0,1-.9,0Zm.735-2.247a.736.736,0,0,0-.646.387L8.4,6.677l6.736-4.716a.736.736,0,0,0-.646-.387Z" transform="translate(0 0)" fill="none"/>
    <g id="Mask_Group_402" data-name="Mask Group 402" clip-path="url(#clip-path)">
      <g id="Color" transform="translate(-2.1 -3.675)">
        <rect id="Rectangle" width="21" height="21" fill="#66687f"/>
      </g>
    </g>
  </g>
</svg>
