<svg id="Icons_Basic_Cross" data-name="Icons / Basic / Cross" xmlns="http://www.w3.org/2000/svg" xmlns:xlink="http://www.w3.org/1999/xlink" width="37" height="37" viewBox="0 0 37 37">
  <defs>
    <clipPath id="clip-path">
      <path id="Time" d="M14.8,29.6A14.8,14.8,0,1,1,29.6,14.8,14.817,14.817,0,0,1,14.8,29.6Zm0-26.825A12.025,12.025,0,1,0,26.825,14.8,12.038,12.038,0,0,0,14.8,2.776ZM20.164,18.87a1.375,1.375,0,0,1-.62-.147l-5.365-2.682a1.379,1.379,0,0,1-.766-1.24V6.753a1.387,1.387,0,1,1,2.774,0v7.189l4.6,2.3a1.387,1.387,0,0,1-.622,2.628Z" transform="translate(0 0)" fill="none"/>
    </clipPath>
    <linearGradient id="linear-gradient" y1="1" x2="1" gradientUnits="objectBoundingBox">
      <stop offset="0" stop-color="#627cee"/>
      <stop offset="1" stop-color="#7759bc"/>
    </linearGradient>
  </defs>
  <g id="Group_66" data-name="Group 66" transform="translate(3.7 3.7)">
    <path id="Time-2" data-name="Time" d="M14.8,29.6A14.8,14.8,0,1,1,29.6,14.8,14.817,14.817,0,0,1,14.8,29.6Zm0-26.825A12.025,12.025,0,1,0,26.825,14.8,12.038,12.038,0,0,0,14.8,2.776ZM20.164,18.87a1.375,1.375,0,0,1-.62-.147l-5.365-2.682a1.379,1.379,0,0,1-.766-1.24V6.753a1.387,1.387,0,1,1,2.774,0v7.189l4.6,2.3a1.387,1.387,0,0,1-.622,2.628Z" transform="translate(0 0)" fill="none"/>
    <g id="Mask_Group_355" data-name="Mask Group 355" clip-path="url(#clip-path)">
      <g id="Color" transform="translate(-3.7 -3.7)">
        <rect id="Rectangle" width="37" height="37" fill="url(#linear-gradient)"/>
      </g>
    </g>
  </g>
</svg>
