<svg id="Group_58" data-name="Group 58" xmlns="http://www.w3.org/2000/svg" xmlns:xlink="http://www.w3.org/1999/xlink" width="14.4" height="14.4" viewBox="0 0 14.4 14.4">
  <defs>
    <clipPath id="clip-path">
      <path id="Image" d="M12.275,14.4H2.125A2.127,2.127,0,0,1,0,12.275V2.125A2.127,2.127,0,0,1,2.125,0h10.15A2.127,2.127,0,0,1,14.4,2.125v10.15A2.128,2.128,0,0,1,12.275,14.4ZM10.1,6.7h0L3.754,13.05h8.52a.776.776,0,0,0,.775-.775V9.654L10.1,6.7ZM2.125,1.35a.775.775,0,0,0-.774.774v10.15a.773.773,0,0,0,.534.737L9.623,5.273a.674.674,0,0,1,.954,0L13.05,7.745V2.125a.776.776,0,0,0-.775-.774ZM4.662,6.425A1.763,1.763,0,1,1,6.425,4.662,1.765,1.765,0,0,1,4.662,6.425Zm0-2.175a.412.412,0,1,0,.412.412A.413.413,0,0,0,4.662,4.25Z" fill="none"/>
    </clipPath>
  </defs>
  <path id="Image-2" data-name="Image" d="M12.275,14.4H2.125A2.127,2.127,0,0,1,0,12.275V2.125A2.127,2.127,0,0,1,2.125,0h10.15A2.127,2.127,0,0,1,14.4,2.125v10.15A2.128,2.128,0,0,1,12.275,14.4ZM10.1,6.7h0L3.754,13.05h8.52a.776.776,0,0,0,.775-.775V9.654L10.1,6.7ZM2.125,1.35a.775.775,0,0,0-.774.774v10.15a.773.773,0,0,0,.534.737L9.623,5.273a.674.674,0,0,1,.954,0L13.05,7.745V2.125a.776.776,0,0,0-.775-.774ZM4.662,6.425A1.763,1.763,0,1,1,6.425,4.662,1.765,1.765,0,0,1,4.662,6.425Zm0-2.175a.412.412,0,1,0,.412.412A.413.413,0,0,0,4.662,4.25Z" fill="none"/>
  <g id="Mask_Group_347" data-name="Mask Group 347" clip-path="url(#clip-path)">
    <g id="Color" transform="translate(-1.8 -1.8)">
      <rect id="Rectangle" width="18" height="18" fill="#3f434a"/>
    </g>
  </g>
</svg>
