<svg id="Icons_Basic_Tasks" data-name="Icons / Basic / Tasks" xmlns="http://www.w3.org/2000/svg" xmlns:xlink="http://www.w3.org/1999/xlink" width="16" height="16" viewBox="0 0 16 16">
  <defs>
    <clipPath id="clip-path">
      <path id="Pin" d="M5.345,12.8a.6.6,0,0,1-.333-.1l-.006,0-.012-.009-.022-.015-.022-.015c-.04-.027-.1-.066-.161-.114-.186-.135-.374-.278-.56-.426A16.766,16.766,0,0,1,2.537,10.57,7.814,7.814,0,0,1,0,5.345,5.345,5.345,0,0,1,9.125,1.566a5.31,5.31,0,0,1,1.565,3.779A7.813,7.813,0,0,1,8.154,10.57a16.727,16.727,0,0,1-1.693,1.548c-.189.151-.378.294-.56.426-.066.048-.12.086-.16.114l-.029.019-.016.011-.012.009,0,0s-.027-.036-.321-.477l.319.479A.6.6,0,0,1,5.345,12.8Zm0-11.6A4.145,4.145,0,0,0,1.2,5.345a7.008,7.008,0,0,0,2.208,4.4,15.5,15.5,0,0,0,1.57,1.434c.125.1.249.195.367.284.123-.093.244-.185.368-.284a15.663,15.663,0,0,0,1.57-1.434,7.013,7.013,0,0,0,2.208-4.4A4.146,4.146,0,0,0,5.345,1.2Zm0,6.327A2.182,2.182,0,1,1,7.528,5.345,2.184,2.184,0,0,1,5.345,7.528Zm0-3.164a.982.982,0,1,0,.982.981A.982.982,0,0,0,5.345,4.364Z" transform="translate(0 0)" fill="none"/>
    </clipPath>
  </defs>
  <g id="Group_26" data-name="Group 26" transform="translate(2.4 1.6)">
    <path id="Pin-2" data-name="Pin" d="M5.345,12.8a.6.6,0,0,1-.333-.1l-.006,0-.012-.009-.022-.015-.022-.015c-.04-.027-.1-.066-.161-.114-.186-.135-.374-.278-.56-.426A16.766,16.766,0,0,1,2.537,10.57,7.814,7.814,0,0,1,0,5.345,5.345,5.345,0,0,1,9.125,1.566a5.31,5.31,0,0,1,1.565,3.779A7.813,7.813,0,0,1,8.154,10.57a16.727,16.727,0,0,1-1.693,1.548c-.189.151-.378.294-.56.426-.066.048-.12.086-.16.114l-.029.019-.016.011-.012.009,0,0s-.027-.036-.321-.477l.319.479A.6.6,0,0,1,5.345,12.8Zm0-11.6A4.145,4.145,0,0,0,1.2,5.345a7.008,7.008,0,0,0,2.208,4.4,15.5,15.5,0,0,0,1.57,1.434c.125.1.249.195.367.284.123-.093.244-.185.368-.284a15.663,15.663,0,0,0,1.57-1.434,7.013,7.013,0,0,0,2.208-4.4A4.146,4.146,0,0,0,5.345,1.2Zm0,6.327A2.182,2.182,0,1,1,7.528,5.345,2.184,2.184,0,0,1,5.345,7.528Zm0-3.164a.982.982,0,1,0,.982.981A.982.982,0,0,0,5.345,4.364Z" transform="translate(0 0)" fill="none"/>
    <g id="Mask_Group_315" data-name="Mask Group 315" clip-path="url(#clip-path)">
      <g id="Color" transform="translate(-2.4 -1.6)">
        <rect id="Rectangle" width="16" height="16" fill="#8a9099"/>
      </g>
    </g>
  </g>
</svg>
