<svg id="Avatar" xmlns="http://www.w3.org/2000/svg" width="39.119" height="39.385" viewBox="0 0 39.119 39.385">
  <path id="BG" d="M39.119,19.692A19.56,19.56,0,1,1,19.559,0,19.626,19.626,0,0,1,39.119,19.692Z" fill="#9868f8"/>
  <g id="Avatar-2" data-name="Avatar" transform="translate(4.445 5.776)">
    <path id="Path" d="M21.124,5.713V4.263a2.5,2.5,0,0,1,.261-1.112A5.323,5.323,0,0,0,21.708.438L21.646,0H9.389L0,15.229l8.867,2.888L14.6,10.5h6.767a1.161,1.161,0,0,0,.967-.521l.106-.16a1.472,1.472,0,0,0-.182-1.848l-.356-.359A2.7,2.7,0,0,1,21.124,5.713Z" transform="translate(4.161 6.209)" fill="#fdc"/>
    <path id="Path-2" data-name="Path" d="M0,6.27A28.024,28.024,0,0,1,3.69.366a1.014,1.014,0,0,1,1.149-.3l9.12,3.5a2.555,2.555,0,0,1,1.534,1.627,45.041,45.041,0,0,1,1.748,8.153,19.648,19.648,0,0,1-2.126.115A19.47,19.47,0,0,1,0,6.27Z" transform="translate(0 20.146)" fill="#ffd240"/>
    <path id="Path-3" data-name="Path" d="M17.571,16.449c-1.305-.788-5.475-.525-5.736-.788-1.565-1.575.651-7.482,1.824-9.452C23.571,9.36,23.571.7,14.442,1.221,4.43-2.915-3.308,3.89,1.428,15.123a1.013,1.013,0,0,0,.807.611,14.664,14.664,0,0,0,3.6.19c.259-.263,1.045-2.1.522-2.363C.678,10.709,8.8,5.051,9.673,10.449a3.169,3.169,0,0,1-.344,1.926C8.186,14.623,6.411,16.683,7.14,19.6c.262,1.05,4.487,3.1,6.782,2.888S18.877,17.237,17.571,16.449Z" transform="translate(6.931 0)" fill="#4e1e30"/>
    <path id="Path-4" data-name="Path" d="M0,.788A.782.782,0,1,0,.782,0,.785.785,0,0,0,0,.788Z" transform="translate(22.678 10.935)" fill="#4a1827"/>
    <path id="Path-5" data-name="Path" d="M3.651.525A.523.523,0,0,0,3.13,0H.522a.525.525,0,0,0,0,1.05H3.13A.523.523,0,0,0,3.651.525Z" transform="translate(21.635 8.835)" fill="#5b2c3e"/>
  </g>
</svg>
