<svg id="Icons_Basic_Mail_Copy" data-name="Icons / Basic / Mail Copy" xmlns="http://www.w3.org/2000/svg" xmlns:xlink="http://www.w3.org/1999/xlink" width="24" height="24" viewBox="0 0 24 24">
  <defs>
    <clipPath id="clip-path">
      <path id="Notebook" d="M16.126,13H3.075a.886.886,0,0,1-.271-.042L.629,12.27A.9.9,0,0,1,.9,10.513h.551V2.35A2.367,2.367,0,0,1,2.139.688,2.335,2.335,0,0,1,3.8,0H15.4a2.349,2.349,0,0,1,2.35,2.35v8.163h.55a.9.9,0,0,1,.272,1.757l-2.175.689A.886.886,0,0,1,16.126,13ZM3.8,1.8a.547.547,0,0,0-.39.161.554.554,0,0,0-.161.389v8.163h12.7V2.35a.549.549,0,0,0-.55-.55Z" transform="translate(0 0)" fill="none"/>
    </clipPath>
  </defs>
  <g id="Group_78" data-name="Group 78" transform="translate(2.4 5.52)">
    <path id="Notebook-2" data-name="Notebook" d="M16.126,13H3.075a.886.886,0,0,1-.271-.042L.629,12.27A.9.9,0,0,1,.9,10.513h.551V2.35A2.367,2.367,0,0,1,2.139.688,2.335,2.335,0,0,1,3.8,0H15.4a2.349,2.349,0,0,1,2.35,2.35v8.163h.55a.9.9,0,0,1,.272,1.757l-2.175.689A.886.886,0,0,1,16.126,13ZM3.8,1.8a.547.547,0,0,0-.39.161.554.554,0,0,0-.161.389v8.163h12.7V2.35a.549.549,0,0,0-.55-.55Z" transform="translate(0 0)" fill="none"/>
    <g id="Mask_Group_367" data-name="Mask Group 367" clip-path="url(#clip-path)">
      <g id="Color" transform="translate(-2.4 -5.52)">
        <rect id="Rectangle" width="24" height="24" fill="#66687f"/>
      </g>
    </g>
  </g>
</svg>
