<svg id="Icons_Basic_Cross" data-name="Icons / Basic / Cross" xmlns="http://www.w3.org/2000/svg" xmlns:xlink="http://www.w3.org/1999/xlink" width="38" height="38" viewBox="0 0 38 38">
  <defs>
    <clipPath id="clip-path">
      <path id="Text" d="M20.71,30.4H4.179A4.236,4.236,0,0,1,0,26.219V4.179A4.235,4.235,0,0,1,4.179,0H15.2a1.434,1.434,0,0,1,1.007.417l8.264,8.264a1.418,1.418,0,0,1,.419,1.009V26.219A4.237,4.237,0,0,1,20.71,30.4ZM4.179,2.851A1.363,1.363,0,0,0,2.851,4.179v22.04a1.364,1.364,0,0,0,1.329,1.33H20.71a1.365,1.365,0,0,0,1.33-1.33v-15.1H15.2a1.426,1.426,0,0,1-1.424-1.424V2.851ZM16.625,4.865v3.4h3.4Zm1.33,18.648H6.936a1.425,1.425,0,0,1,0-2.851H17.955a1.425,1.425,0,1,1,0,2.851Zm0-5.51H6.936a1.425,1.425,0,0,1,0-2.851H17.955a1.425,1.425,0,1,1,0,2.851Zm-8.264-5.51H6.936a1.425,1.425,0,0,1,0-2.851H9.691a1.425,1.425,0,0,1,0,2.851Z" transform="translate(0 0)" fill="none"/>
    </clipPath>
    <linearGradient id="linear-gradient" y1="1" x2="1" gradientUnits="objectBoundingBox">
      <stop offset="0" stop-color="#ff67a7"/>
      <stop offset="1" stop-color="#fd8762"/>
    </linearGradient>
  </defs>
  <g id="Group_73" data-name="Group 73" transform="translate(6.555 3.8)">
    <path id="Text-2" data-name="Text" d="M20.71,30.4H4.179A4.236,4.236,0,0,1,0,26.219V4.179A4.235,4.235,0,0,1,4.179,0H15.2a1.434,1.434,0,0,1,1.007.417l8.264,8.264a1.418,1.418,0,0,1,.419,1.009V26.219A4.237,4.237,0,0,1,20.71,30.4ZM4.179,2.851A1.363,1.363,0,0,0,2.851,4.179v22.04a1.364,1.364,0,0,0,1.329,1.33H20.71a1.365,1.365,0,0,0,1.33-1.33v-15.1H15.2a1.426,1.426,0,0,1-1.424-1.424V2.851ZM16.625,4.865v3.4h3.4Zm1.33,18.648H6.936a1.425,1.425,0,0,1,0-2.851H17.955a1.425,1.425,0,1,1,0,2.851Zm0-5.51H6.936a1.425,1.425,0,0,1,0-2.851H17.955a1.425,1.425,0,1,1,0,2.851Zm-8.264-5.51H6.936a1.425,1.425,0,0,1,0-2.851H9.691a1.425,1.425,0,0,1,0,2.851Z" transform="translate(0 0)" fill="none"/>
    <g id="Mask_Group_362" data-name="Mask Group 362" clip-path="url(#clip-path)">
      <g id="Color" transform="translate(-6.555 -3.8)">
        <rect id="Rectangle" width="38" height="38" fill="url(#linear-gradient)"/>
      </g>
    </g>
  </g>
</svg>
