<svg xmlns="http://www.w3.org/2000/svg" xmlns:xlink="http://www.w3.org/1999/xlink" width="31" height="36" viewBox="0 0 31 36">
  <defs>
    <linearGradient id="linear-gradient" y1="1" x2="1" gradientUnits="objectBoundingBox">
      <stop offset="0" stop-color="#05e2d3"/>
      <stop offset="1" stop-color="#009df7"/>
    </linearGradient>
    <clipPath id="clip-path">
      <path id="Shape" d="M11.314,36a1.283,1.283,0,0,1-1.22-.855L6.686,25.2,5.591,28.4a1.281,1.281,0,0,1-1.22.855H1.286a1.251,1.251,0,1,1,0-2.5H3.444l2.021-5.9a1.3,1.3,0,0,1,2.44,0L11.314,30.8l1.1-3.192a1.281,1.281,0,0,1,1.219-.855h3.085a1.251,1.251,0,1,1,0,2.5H14.556l-2.021,5.9A1.283,1.283,0,0,1,11.314,36Zm15.522-3H20.452a6.256,6.256,0,0,0,1.917-2.475h4.468A1.674,1.674,0,0,0,28.048,30a1.874,1.874,0,0,0,.515-1.292V7.343a1.877,1.877,0,0,0-.515-1.292,1.674,1.674,0,0,0-1.211-.522H25.11v.287A2.732,2.732,0,0,1,22.418,8.58H13.582a2.731,2.731,0,0,1-2.691-2.764V5.529H9.164a1.674,1.674,0,0,0-1.211.522,1.877,1.877,0,0,0-.515,1.292v7.531a6,6,0,0,0-.673-.038A6.069,6.069,0,0,0,5,15.1V7.343A4.328,4.328,0,0,1,6.211,4.319,4.129,4.129,0,0,1,9.164,3.054h1.727v-.29A2.731,2.731,0,0,1,13.582,0h8.836A2.732,2.732,0,0,1,25.11,2.764v.29h1.726a4.129,4.129,0,0,1,2.953,1.265A4.328,4.328,0,0,1,31,7.343V28.71a4.324,4.324,0,0,1-1.211,3.024A4.126,4.126,0,0,1,26.836,33ZM13.244,2A.288.288,0,0,0,13,2.318V5.682A.288.288,0,0,0,13.244,6h8.511A.288.288,0,0,0,22,5.682V2.318A.288.288,0,0,0,21.756,2Z" transform="translate(10 8)" fill="url(#linear-gradient)"/>
    </clipPath>
  </defs>
  <g id="Icon" transform="translate(-10 -8)">
    <path id="Shape-2" data-name="Shape" d="M11.314,36a1.283,1.283,0,0,1-1.22-.855L6.686,25.2,5.591,28.4a1.281,1.281,0,0,1-1.22.855H1.286a1.251,1.251,0,1,1,0-2.5H3.444l2.021-5.9a1.3,1.3,0,0,1,2.44,0L11.314,30.8l1.1-3.192a1.281,1.281,0,0,1,1.219-.855h3.085a1.251,1.251,0,1,1,0,2.5H14.556l-2.021,5.9A1.283,1.283,0,0,1,11.314,36Zm15.522-3H20.452a6.256,6.256,0,0,0,1.917-2.475h4.468A1.674,1.674,0,0,0,28.048,30a1.874,1.874,0,0,0,.515-1.292V7.343a1.877,1.877,0,0,0-.515-1.292,1.674,1.674,0,0,0-1.211-.522H25.11v.287A2.732,2.732,0,0,1,22.418,8.58H13.582a2.731,2.731,0,0,1-2.691-2.764V5.529H9.164a1.674,1.674,0,0,0-1.211.522,1.877,1.877,0,0,0-.515,1.292v7.531a6,6,0,0,0-.673-.038A6.069,6.069,0,0,0,5,15.1V7.343A4.328,4.328,0,0,1,6.211,4.319,4.129,4.129,0,0,1,9.164,3.054h1.727v-.29A2.731,2.731,0,0,1,13.582,0h8.836A2.732,2.732,0,0,1,25.11,2.764v.29h1.726a4.129,4.129,0,0,1,2.953,1.265A4.328,4.328,0,0,1,31,7.343V28.71a4.324,4.324,0,0,1-1.211,3.024A4.126,4.126,0,0,1,26.836,33ZM13.244,2A.288.288,0,0,0,13,2.318V5.682A.288.288,0,0,0,13.244,6h8.511A.288.288,0,0,0,22,5.682V2.318A.288.288,0,0,0,21.756,2Z" transform="translate(10 8)" fill="url(#linear-gradient)"/>
    <g id="Mask_Group_15" data-name="Mask Group 15" clip-path="url(#clip-path)">
      <g id="Color" transform="translate(13 13)">
        <rect id="Rectangle" width="31" height="31" fill="url(#linear-gradient)"/>
      </g>
    </g>
  </g>
</svg>
