<svg xmlns="http://www.w3.org/2000/svg" xmlns:xlink="http://www.w3.org/1999/xlink" width="28" height="33" viewBox="0 0 28 33">
  <defs>
    <linearGradient id="linear-gradient" y1="1" x2="1" gradientUnits="objectBoundingBox">
      <stop offset="0" stop-color="#627cee"/>
      <stop offset="1" stop-color="#7759bc"/>
    </linearGradient>
    <clipPath id="clip-path">
      <path id="Shape" d="M7.5,33a1.252,1.252,0,0,1-1.25-1.25v-5h-5a1.25,1.25,0,1,1,0-2.5h5v-5a1.25,1.25,0,1,1,2.5,0v5h5a1.25,1.25,0,1,1,0,2.5h-5v5A1.252,1.252,0,0,1,7.5,33Zm16.656-3h-7.34a5.772,5.772,0,0,0,1.723-2.25h5.617a1.557,1.557,0,0,0,1.119-.475A1.687,1.687,0,0,0,25.75,26.1V6.676A1.691,1.691,0,0,0,25.275,5.5a1.557,1.557,0,0,0-1.119-.475H22.563v.262A2.5,2.5,0,0,1,20.078,7.8H11.922A2.5,2.5,0,0,1,9.437,5.288V5.026H7.844A1.557,1.557,0,0,0,6.725,5.5a1.691,1.691,0,0,0-.474,1.175v6.861A5.693,5.693,0,0,0,4,14.332V6.676a3.9,3.9,0,0,1,1.118-2.75A3.84,3.84,0,0,1,7.844,2.776H9.437V2.513A2.5,2.5,0,0,1,11.922,0h8.156a2.5,2.5,0,0,1,2.485,2.513v.263h1.593a3.84,3.84,0,0,1,2.726,1.151A3.9,3.9,0,0,1,28,6.676V26.1a3.9,3.9,0,0,1-1.118,2.75A3.843,3.843,0,0,1,24.156,30ZM12.218,3A.229.229,0,0,0,12,3.238V5.762A.229.229,0,0,0,12.218,6h7.565A.228.228,0,0,0,20,5.762V3.238A.228.228,0,0,0,19.783,3Z" transform="translate(3)" fill="url(#linear-gradient)"/>
    </clipPath>
  </defs>
  <g id="Icon" transform="translate(-3)">
    <path id="Shape-2" data-name="Shape" d="M7.5,33a1.252,1.252,0,0,1-1.25-1.25v-5h-5a1.25,1.25,0,1,1,0-2.5h5v-5a1.25,1.25,0,1,1,2.5,0v5h5a1.25,1.25,0,1,1,0,2.5h-5v5A1.252,1.252,0,0,1,7.5,33Zm16.656-3h-7.34a5.772,5.772,0,0,0,1.723-2.25h5.617a1.557,1.557,0,0,0,1.119-.475A1.687,1.687,0,0,0,25.75,26.1V6.676A1.691,1.691,0,0,0,25.275,5.5a1.557,1.557,0,0,0-1.119-.475H22.563v.262A2.5,2.5,0,0,1,20.078,7.8H11.922A2.5,2.5,0,0,1,9.437,5.288V5.026H7.844A1.557,1.557,0,0,0,6.725,5.5a1.691,1.691,0,0,0-.474,1.175v6.861A5.693,5.693,0,0,0,4,14.332V6.676a3.9,3.9,0,0,1,1.118-2.75A3.84,3.84,0,0,1,7.844,2.776H9.437V2.513A2.5,2.5,0,0,1,11.922,0h8.156a2.5,2.5,0,0,1,2.485,2.513v.263h1.593a3.84,3.84,0,0,1,2.726,1.151A3.9,3.9,0,0,1,28,6.676V26.1a3.9,3.9,0,0,1-1.118,2.75A3.843,3.843,0,0,1,24.156,30ZM12.218,3A.229.229,0,0,0,12,3.238V5.762A.229.229,0,0,0,12.218,6h7.565A.228.228,0,0,0,20,5.762V3.238A.228.228,0,0,0,19.783,3Z" transform="translate(3)" fill="url(#linear-gradient)"/>
  </g>
</svg>
