<svg id="Icons_Basic_Cross" data-name="Icons / Basic / Cross" xmlns="http://www.w3.org/2000/svg" xmlns:xlink="http://www.w3.org/1999/xlink" width="41" height="41" viewBox="0 0 41 41">
  <defs>
    <clipPath id="clip-path">
      <path id="calendar" d="M24.6,32.808a8.2,8.2,0,1,1,8.2-8.2A8.208,8.208,0,0,1,24.6,32.808Zm0-13.325a5.124,5.124,0,1,0,5.125,5.125A5.13,5.13,0,0,0,24.6,19.483ZM14.542,32.808h-8.9A5.644,5.644,0,0,1,0,27.171V8.208A5.645,5.645,0,0,1,5.638,2.57h.817V1.537a1.538,1.538,0,0,1,3.076,0V2.57h5.332V1.537a1.537,1.537,0,0,1,3.074,0V2.57h5.125V1.537a1.538,1.538,0,0,1,3.076,0V2.57h1.024A5.645,5.645,0,0,1,32.8,8.208V14.55a1.538,1.538,0,1,1-3.076,0V8.208a2.566,2.566,0,0,0-2.563-2.563H26.138v1.02a1.538,1.538,0,0,1-3.076,0V5.646H17.937v1.02a1.537,1.537,0,0,1-3.074,0V5.646H9.531v1.02a1.538,1.538,0,0,1-3.076,0V5.646H5.638A2.566,2.566,0,0,0,3.076,8.208V27.171a2.565,2.565,0,0,0,2.563,2.561h8.9a1.538,1.538,0,0,1,0,3.076Zm11.9-6.149H23.985a1.027,1.027,0,0,1-1.026-1.026V22.559a1.026,1.026,0,1,1,2.052,0v2.05h1.434a1.025,1.025,0,1,1,0,2.05Zm-12.873-.637a1.434,1.434,0,1,1,1.434-1.434A1.436,1.436,0,0,1,13.572,26.022Zm-5.535,0A1.434,1.434,0,1,1,9.47,24.588,1.436,1.436,0,0,1,8.037,26.022Zm5.535-5.555a1.434,1.434,0,1,1,1.434-1.435A1.437,1.437,0,0,1,13.572,20.467Zm-5.535,0A1.434,1.434,0,1,1,9.47,19.031,1.437,1.437,0,0,1,8.037,20.467Zm16.666-5.6a1.435,1.435,0,1,1,1.435-1.435A1.437,1.437,0,0,1,24.7,14.871Zm-5.535,0A1.435,1.435,0,1,1,20.6,13.435,1.437,1.437,0,0,1,19.168,14.871Zm-5.6,0a1.435,1.435,0,1,1,1.434-1.435A1.437,1.437,0,0,1,13.572,14.871Zm-5.535,0A1.435,1.435,0,1,1,9.47,13.435,1.437,1.437,0,0,1,8.037,14.871Z" transform="translate(0 0)" fill="none"/>
    </clipPath>
    <linearGradient id="linear-gradient" y1="1" x2="1" gradientUnits="objectBoundingBox">
      <stop offset="0" stop-color="#ffc25f"/>
      <stop offset="1" stop-color="#ffaf73"/>
    </linearGradient>
  </defs>
  <g id="Group_114" data-name="Group 114" transform="translate(4.1 4.1)">
    <path id="calendar-2" data-name="calendar" d="M24.6,32.808a8.2,8.2,0,1,1,8.2-8.2A8.208,8.208,0,0,1,24.6,32.808Zm0-13.325a5.124,5.124,0,1,0,5.125,5.125A5.13,5.13,0,0,0,24.6,19.483ZM14.542,32.808h-8.9A5.644,5.644,0,0,1,0,27.171V8.208A5.645,5.645,0,0,1,5.638,2.57h.817V1.537a1.538,1.538,0,0,1,3.076,0V2.57h5.332V1.537a1.537,1.537,0,0,1,3.074,0V2.57h5.125V1.537a1.538,1.538,0,0,1,3.076,0V2.57h1.024A5.645,5.645,0,0,1,32.8,8.208V14.55a1.538,1.538,0,1,1-3.076,0V8.208a2.566,2.566,0,0,0-2.563-2.563H26.138v1.02a1.538,1.538,0,0,1-3.076,0V5.646H17.937v1.02a1.537,1.537,0,0,1-3.074,0V5.646H9.531v1.02a1.538,1.538,0,0,1-3.076,0V5.646H5.638A2.566,2.566,0,0,0,3.076,8.208V27.171a2.565,2.565,0,0,0,2.563,2.561h8.9a1.538,1.538,0,0,1,0,3.076Zm11.9-6.149H23.985a1.027,1.027,0,0,1-1.026-1.026V22.559a1.026,1.026,0,1,1,2.052,0v2.05h1.434a1.025,1.025,0,1,1,0,2.05Zm-12.873-.637a1.434,1.434,0,1,1,1.434-1.434A1.436,1.436,0,0,1,13.572,26.022Zm-5.535,0A1.434,1.434,0,1,1,9.47,24.588,1.436,1.436,0,0,1,8.037,26.022Zm5.535-5.555a1.434,1.434,0,1,1,1.434-1.435A1.437,1.437,0,0,1,13.572,20.467Zm-5.535,0A1.434,1.434,0,1,1,9.47,19.031,1.437,1.437,0,0,1,8.037,20.467Zm16.666-5.6a1.435,1.435,0,1,1,1.435-1.435A1.437,1.437,0,0,1,24.7,14.871Zm-5.535,0A1.435,1.435,0,1,1,20.6,13.435,1.437,1.437,0,0,1,19.168,14.871Zm-5.6,0a1.435,1.435,0,1,1,1.434-1.435A1.437,1.437,0,0,1,13.572,14.871Zm-5.535,0A1.435,1.435,0,1,1,9.47,13.435,1.437,1.437,0,0,1,8.037,14.871Z" transform="translate(0 0)" fill="none"/>
    <g id="Mask_Group_403" data-name="Mask Group 403" clip-path="url(#clip-path)">
      <g id="Color" transform="translate(-4.1 -4.1)">
        <rect id="Rectangle" width="41" height="41" fill="url(#linear-gradient)"/>
      </g>
    </g>
  </g>
</svg>
