<svg xmlns="http://www.w3.org/2000/svg" xmlns:xlink="http://www.w3.org/1999/xlink" width="15.75" height="15.75" viewBox="0 0 15.75 15.75">
  <defs>
    <clipPath id="clip-path">
      <path id="Search" d="M15,15.75a.743.743,0,0,1-.53-.22l-3.506-3.505A6.679,6.679,0,0,1,6.75,13.5,6.75,6.75,0,1,1,13.5,6.75a6.678,6.678,0,0,1-1.476,4.213l3.506,3.506A.75.75,0,0,1,15,15.75ZM6.75,1.5A5.25,5.25,0,1,0,12,6.75,5.256,5.256,0,0,0,6.75,1.5Z" transform="translate(0 0)" fill="none"/>
    </clipPath>
  </defs>
  <g id="Mask_Group_334" data-name="Mask Group 334" transform="translate(0 0)" clip-path="url(#clip-path)">
    <g id="Color" transform="translate(-2.25 -2.25)">
      <rect id="Rectangle" width="20" height="20" fill="#8a9099"/>
    </g>
  </g>
</svg>
