<svg xmlns="http://www.w3.org/2000/svg" xmlns:xlink="http://www.w3.org/1999/xlink" width="16" height="16" viewBox="0 0 16 16"><defs><clipPath id="a"><path d="M8.984,16H7.016a2.119,2.119,0,0,1-2.1-2.124v-.03c-.218-.115-.424-.235-.613-.357l-.158.087a2.25,2.25,0,0,1-1.063.263,2.044,2.044,0,0,1-1.784-1L.309,11.228A1.978,1.978,0,0,1,.068,9.657,2.258,2.258,0,0,1,1.125,8.3l.175-.1c0-.069,0-.139-.005-.205s0-.136.005-.205l-.175-.1A2.258,2.258,0,0,1,.068,6.343,1.978,1.978,0,0,1,.309,4.772l.984-1.616a2.043,2.043,0,0,1,1.784-.995,2.254,2.254,0,0,1,1.064.263l.158.087c.192-.124.4-.244.613-.357v-.03A2.119,2.119,0,0,1,7.016,0H8.984a2.119,2.119,0,0,1,2.1,2.124v.03c.218.115.424.235.613.357l.158-.087a2.257,2.257,0,0,1,1.064-.263,2.045,2.045,0,0,1,1.785.995l.984,1.616a1.977,1.977,0,0,1,.241,1.571A2.258,2.258,0,0,1,14.874,7.7l-.174.1c0,.069,0,.139.005.205s0,.136-.005.205l.174.1a2.258,2.258,0,0,1,1.058,1.357,1.977,1.977,0,0,1-.241,1.571l-.984,1.616a2.045,2.045,0,0,1-1.785,1,2.253,2.253,0,0,1-1.064-.263l-.158-.087c-.192.124-.4.244-.613.357v.03A2.119,2.119,0,0,1,8.984,16Zm-4.52-4.628h0a4.953,4.953,0,0,0,2.223,1.294v1.21a.338.338,0,0,0,.329.347H8.984a.338.338,0,0,0,.328-.347v-1.21a4.951,4.951,0,0,0,2.224-1.294l1.174.644a.41.41,0,0,0,.2.051.324.324,0,0,0,.283-.147l.984-1.616a.281.281,0,0,0,.03-.22.368.368,0,0,0-.181-.222l-1.24-.679a4.833,4.833,0,0,0,0-2.363l1.24-.679a.368.368,0,0,0,.181-.222.281.281,0,0,0-.03-.22L13.19,4.081a.324.324,0,0,0-.283-.147.41.41,0,0,0-.2.051l-1.174.644A4.941,4.941,0,0,0,9.312,3.334V2.124a.338.338,0,0,0-.328-.346H7.016a.338.338,0,0,0-.329.346V3.334A4.941,4.941,0,0,0,4.464,4.628L3.289,3.984a.41.41,0,0,0-.2-.051.324.324,0,0,0-.283.147L1.826,5.7a.281.281,0,0,0-.03.22.368.368,0,0,0,.181.222l1.241.679a4.8,4.8,0,0,0,0,2.363L1.976,9.86a.368.368,0,0,0-.181.222.281.281,0,0,0,.03.22L2.81,11.92a.324.324,0,0,0,.283.147.41.41,0,0,0,.2-.051l1.174-.643ZM8,10.667A2.667,2.667,0,1,1,10.659,8,2.668,2.668,0,0,1,8,10.667ZM8,7A1,1,0,1,0,9,8,1,1,0,0,0,8,7Z" transform="translate(0 0)" fill="none"/></clipPath></defs><g transform="translate(-2 -2)"><g transform="translate(2 2)"><path d="M8.984,16H7.016a2.119,2.119,0,0,1-2.1-2.124v-.03c-.218-.115-.424-.235-.613-.357l-.158.087a2.25,2.25,0,0,1-1.063.263,2.044,2.044,0,0,1-1.784-1L.309,11.228A1.978,1.978,0,0,1,.068,9.657,2.258,2.258,0,0,1,1.125,8.3l.175-.1c0-.069,0-.139-.005-.205s0-.136.005-.205l-.175-.1A2.258,2.258,0,0,1,.068,6.343,1.978,1.978,0,0,1,.309,4.772l.984-1.616a2.043,2.043,0,0,1,1.784-.995,2.254,2.254,0,0,1,1.064.263l.158.087c.192-.124.4-.244.613-.357v-.03A2.119,2.119,0,0,1,7.016,0H8.984a2.119,2.119,0,0,1,2.1,2.124v.03c.218.115.424.235.613.357l.158-.087a2.257,2.257,0,0,1,1.064-.263,2.045,2.045,0,0,1,1.785.995l.984,1.616a1.977,1.977,0,0,1,.241,1.571A2.258,2.258,0,0,1,14.874,7.7l-.174.1c0,.069,0,.139.005.205s0,.136-.005.205l.174.1a2.258,2.258,0,0,1,1.058,1.357,1.977,1.977,0,0,1-.241,1.571l-.984,1.616a2.045,2.045,0,0,1-1.785,1,2.253,2.253,0,0,1-1.064-.263l-.158-.087c-.192.124-.4.244-.613.357v.03A2.119,2.119,0,0,1,8.984,16Zm-4.52-4.628h0a4.953,4.953,0,0,0,2.223,1.294v1.21a.338.338,0,0,0,.329.347H8.984a.338.338,0,0,0,.328-.347v-1.21a4.951,4.951,0,0,0,2.224-1.294l1.174.644a.41.41,0,0,0,.2.051.324.324,0,0,0,.283-.147l.984-1.616a.281.281,0,0,0,.03-.22.368.368,0,0,0-.181-.222l-1.24-.679a4.833,4.833,0,0,0,0-2.363l1.24-.679a.368.368,0,0,0,.181-.222.281.281,0,0,0-.03-.22L13.19,4.081a.324.324,0,0,0-.283-.147.41.41,0,0,0-.2.051l-1.174.644A4.941,4.941,0,0,0,9.312,3.334V2.124a.338.338,0,0,0-.328-.346H7.016a.338.338,0,0,0-.329.346V3.334A4.941,4.941,0,0,0,4.464,4.628L3.289,3.984a.41.41,0,0,0-.2-.051.324.324,0,0,0-.283.147L1.826,5.7a.281.281,0,0,0-.03.22.368.368,0,0,0,.181.222l1.241.679a4.8,4.8,0,0,0,0,2.363L1.976,9.86a.368.368,0,0,0-.181.222.281.281,0,0,0,.03.22L2.81,11.92a.324.324,0,0,0,.283.147.41.41,0,0,0,.2-.051l1.174-.643ZM8,10.667A2.667,2.667,0,1,1,10.659,8,2.668,2.668,0,0,1,8,10.667ZM8,7A1,1,0,1,0,9,8,1,1,0,0,0,8,7Z" transform="translate(0 0)" fill="none"/><g clip-path="url(#a)"><g transform="translate(-2 -2)"><rect width="20" height="20" fill="#8a9099"/></g></g></g></g></svg>