<svg xmlns="http://www.w3.org/2000/svg" xmlns:xlink="http://www.w3.org/1999/xlink" width="15.999" height="14.501" viewBox="0 0 15.999 14.501"><defs><clipPath id="a"><path d="M13.8,14.5H2.2a2.2,2.2,0,0,1-2.2-2.2V5.083A2.2,2.2,0,0,1,2.2,2.889H4.35V2.194A2.2,2.2,0,0,1,6.549,0h2.9a2.2,2.2,0,0,1,2.2,2.194v.695H13.8A2.2,2.2,0,0,1,16,5.083v7.223A2.2,2.2,0,0,1,13.8,14.5ZM11.65,4.388V13H13.8a.7.7,0,0,0,.7-.695V5.083a.7.7,0,0,0-.7-.695Zm-5.8,0V13h4.3V4.388Zm-3.65,0a.7.7,0,0,0-.7.695v7.223A.7.7,0,0,0,2.2,13H4.35V4.388ZM6.549,1.5a.7.7,0,0,0-.7.694v.695h4.3V2.194a.686.686,0,0,0-.2-.49.7.7,0,0,0-.5-.2Z" transform="translate(0 0)" fill="none"/></clipPath></defs><g transform="translate(-2 -2.75)"><g transform="translate(2 2.75)"><path d="M13.8,14.5H2.2a2.2,2.2,0,0,1-2.2-2.2V5.083A2.2,2.2,0,0,1,2.2,2.889H4.35V2.194A2.2,2.2,0,0,1,6.549,0h2.9a2.2,2.2,0,0,1,2.2,2.194v.695H13.8A2.2,2.2,0,0,1,16,5.083v7.223A2.2,2.2,0,0,1,13.8,14.5ZM11.65,4.388V13H13.8a.7.7,0,0,0,.7-.695V5.083a.7.7,0,0,0-.7-.695Zm-5.8,0V13h4.3V4.388Zm-3.65,0a.7.7,0,0,0-.7.695v7.223A.7.7,0,0,0,2.2,13H4.35V4.388ZM6.549,1.5a.7.7,0,0,0-.7.694v.695h4.3V2.194a.686.686,0,0,0-.2-.49.7.7,0,0,0-.5-.2Z" transform="translate(0 0)" fill="none"/><g clip-path="url(#a)"><g transform="translate(-2 -2.75)"><rect width="20" height="20" fill="#8a9099"/></g></g></g></g></svg>