<svg xmlns="http://www.w3.org/2000/svg" xmlns:xlink="http://www.w3.org/1999/xlink" width="13.1" height="16" viewBox="0 0 13.1 16"><defs><clipPath id="a"><path d="M12.35,16H2.562A2.563,2.563,0,0,1,0,13.438V2.562A2.563,2.563,0,0,1,2.562,0H12.35A.751.751,0,0,1,13.1.75v14.5A.751.751,0,0,1,12.35,16ZM2.562,12.375a1.062,1.062,0,1,0,0,2.125H11.6V12.375Zm0-10.875A1.06,1.06,0,0,0,1.5,2.562v8.544a2.535,2.535,0,0,1,1.062-.231H11.6V1.5Z" transform="translate(0 0)" fill="none"/></clipPath></defs><g transform="translate(-3 -2)"><g transform="translate(3 2)"><path d="M12.35,16H2.562A2.563,2.563,0,0,1,0,13.438V2.562A2.563,2.563,0,0,1,2.562,0H12.35A.751.751,0,0,1,13.1.75v14.5A.751.751,0,0,1,12.35,16ZM2.562,12.375a1.062,1.062,0,1,0,0,2.125H11.6V12.375Zm0-10.875A1.06,1.06,0,0,0,1.5,2.562v8.544a2.535,2.535,0,0,1,1.062-.231H11.6V1.5Z" transform="translate(0 0)" fill="none"/><g clip-path="url(#a)"><g transform="translate(-3 -2)"><rect width="20" height="20" fill="#8a9099"/></g></g></g></g></svg>