<svg id="Group_109" data-name="Group 109" xmlns="http://www.w3.org/2000/svg" xmlns:xlink="http://www.w3.org/1999/xlink" width="12.6" height="14.4" viewBox="0 0 12.6 14.4">
  <defs>
    <clipPath id="clip-path">
      <path id="user" d="M11.064,14.4H1.537A1.571,1.571,0,0,1,0,12.8,5.027,5.027,0,0,1,4.917,7.68H7.683A5.028,5.028,0,0,1,12.6,12.8,1.571,1.571,0,0,1,11.064,14.4ZM4.917,9.03A3.676,3.676,0,0,0,1.35,12.8a.281.281,0,0,0,.074.2.155.155,0,0,0,.113.053h9.527A.157.157,0,0,0,11.176,13a.282.282,0,0,0,.074-.2A3.677,3.677,0,0,0,7.683,9.03ZM6.3,6.72A3.38,3.38,0,0,1,2.908,3.36a3.392,3.392,0,0,1,6.785,0A3.38,3.38,0,0,1,6.3,6.72Zm0-5.369A2.029,2.029,0,0,0,4.257,3.36a2.043,2.043,0,0,0,4.085,0A2.028,2.028,0,0,0,6.3,1.35Z" transform="translate(0 0)" fill="none"/>
    </clipPath>
  </defs>
  <path id="user-2" data-name="user" d="M11.064,14.4H1.537A1.571,1.571,0,0,1,0,12.8,5.027,5.027,0,0,1,4.917,7.68H7.683A5.028,5.028,0,0,1,12.6,12.8,1.571,1.571,0,0,1,11.064,14.4ZM4.917,9.03A3.676,3.676,0,0,0,1.35,12.8a.281.281,0,0,0,.074.2.155.155,0,0,0,.113.053h9.527A.157.157,0,0,0,11.176,13a.282.282,0,0,0,.074-.2A3.677,3.677,0,0,0,7.683,9.03ZM6.3,6.72A3.38,3.38,0,0,1,2.908,3.36a3.392,3.392,0,0,1,6.785,0A3.38,3.38,0,0,1,6.3,6.72Zm0-5.369A2.029,2.029,0,0,0,4.257,3.36a2.043,2.043,0,0,0,4.085,0A2.028,2.028,0,0,0,6.3,1.35Z" transform="translate(0 0)" fill="none"/>
  <g id="Mask_Group_398" data-name="Mask Group 398" clip-path="url(#clip-path)">
    <g id="Color" transform="translate(-2.7 -1.8)">
      <rect id="Rectangle" width="18" height="18" fill="#3f434a"/>
    </g>
  </g>
</svg>
